<?xml version="1.0" encoding="iso-8859-1"?>
<!-- Generator: Adobe Illustrator 19.0.0, SVG Export Plug-In . SVG Version: 6.00 Build 0)  -->
<svg version="1.1" id="Capa_1" xmlns="http://www.w3.org/2000/svg" xmlns:xlink="http://www.w3.org/1999/xlink" x="0px" y="0px"
	 viewBox="0 0 512 512" style="enable-background:new 0 0 512 512;" xml:space="preserve">
<path style="fill:#314A5E;" d="M408.06,512H104.798c-5.908,0-9.846-3.938-9.846-9.846V9.846C94.952,3.938,98.89,0,104.798,0h302.277
	c5.908,0,9.846,3.938,9.846,9.846v492.308C417.906,508.062,412.983,512,408.06,512z"/>
<rect x="119.567" y="74.831" style="fill:#68BBF1;" width="274.708" height="311.138"/>
<polygon style="fill:#4EA2DC;" points="119.567,385.969 119.567,74.831 393.29,74.831 "/>
<g>
	<path style="fill:#2B3A4D;" d="M289.906,48.246h-65.969c-5.908,0-10.831-4.923-10.831-10.831s4.923-10.831,10.831-10.831h65.969
		c5.908,0,10.831,4.923,10.831,10.831S295.814,48.246,289.906,48.246z"/>
	<circle style="fill:#2B3A4D;" cx="256.429" cy="448.985" r="35.446"/>
</g>
<circle style="fill:#FFFFFF;" cx="256.429" cy="190.031" r="51.2"/>
<path style="fill:#FFD05C;" d="M304.675,245.169c-27.569,24.615-68.923,24.615-96.492,0c-25.6,15.754-43.323,44.308-43.323,77.785
	h183.138C347.998,289.477,330.275,260.923,304.675,245.169z"/>
<path style="fill:#3095CE;" d="M358.829,311.138h-204.8c-5.908,0-10.831,4.923-10.831,10.831s4.923,10.831,10.831,10.831h205.785
	c5.908,0,10.831-4.923,10.831-10.831C370.644,316.062,364.737,311.138,358.829,311.138z"/>
<g>
</g>
<g>
</g>
<g>
</g>
<g>
</g>
<g>
</g>
<g>
</g>
<g>
</g>
<g>
</g>
<g>
</g>
<g>
</g>
<g>
</g>
<g>
</g>
<g>
</g>
<g>
</g>
<g>
</g>
</svg>
