<?xml version="1.0" encoding="iso-8859-1"?>
<!-- Generator: Adobe Illustrator 19.0.0, SVG Export Plug-In . SVG Version: 6.00 Build 0)  -->
<svg version="1.1" id="Capa_1" xmlns="http://www.w3.org/2000/svg" xmlns:xlink="http://www.w3.org/1999/xlink" x="0px" y="0px"
	 viewBox="0 0 512 512" style="enable-background:new 0 0 512 512;" xml:space="preserve">
<path style="fill:#FFD05C;" d="M232.369,141.785c0,29.538-24.615,72.862-54.154,72.862s-54.154-42.338-54.154-72.862
	s24.615-54.154,54.154-54.154S232.369,112.246,232.369,141.785z"/>
<path style="fill:#FF7058;" d="M245.169,209.723l-12.8-2.954c-31.508,42.338-77.785,42.338-109.292,0l-12.8,3.938
	c-16.738,4.923-28.554,19.692-28.554,37.415v69.908h192v-69.908C273.723,229.415,261.908,214.646,245.169,209.723z"/>
<rect x="32.492" y="317.046" style="fill:#C7C7C7;" width="290.462" height="165.415"/>
<g>
	<rect x="50.215" y="482.462" style="fill:#B0AFB0;" width="23.631" height="24.615"/>
	<rect x="282.585" y="482.462" style="fill:#B0AFB0;" width="23.631" height="24.615"/>
	<path style="fill:#B0AFB0;" d="M344.615,327.877h-332.8C5.908,327.877,0,322.954,0,316.062c0-6.892,4.923-10.831,11.815-10.831
		h332.8c5.908,0,11.815,4.923,11.815,11.815S350.523,327.877,344.615,327.877z"/>
</g>
<path style="fill:#68BBF1;" d="M443.077,4.923H342.646c-38.4,0-68.923,30.523-68.923,68.923l0,0c0,13.785,3.938,27.569,11.815,38.4
	l-20.677,51.2l53.169-24.615c7.877,2.954,15.754,4.923,24.615,4.923h100.431c38.4,0,68.923-30.523,68.923-68.923l0,0
	C512,35.446,481.477,4.923,443.077,4.923z"/>
<g>
	<path style="fill:#FFFFFF;" d="M457.846,39.385H328.862c-5.908,0-11.815,4.923-11.815,11.815s4.923,11.815,11.815,11.815h128.985
		c5.908,0,11.815-4.923,11.815-11.815S463.754,39.385,457.846,39.385z"/>
	<path style="fill:#FFFFFF;" d="M434.215,85.662h-81.723c-5.908,0-11.815,4.923-11.815,11.815c0,6.892,4.923,11.815,11.815,11.815
		h81.723c5.908,0,11.815-4.923,11.815-11.815C446.031,90.585,440.123,85.662,434.215,85.662z"/>
</g>
<g>
</g>
<g>
</g>
<g>
</g>
<g>
</g>
<g>
</g>
<g>
</g>
<g>
</g>
<g>
</g>
<g>
</g>
<g>
</g>
<g>
</g>
<g>
</g>
<g>
</g>
<g>
</g>
<g>
</g>
</svg>
