<?xml version="1.0" encoding="iso-8859-1"?>
<!-- Generator: Adobe Illustrator 19.0.0, SVG Export Plug-In . SVG Version: 6.00 Build 0)  -->
<svg version="1.1" id="Capa_1" xmlns="http://www.w3.org/2000/svg" xmlns:xlink="http://www.w3.org/1999/xlink" x="0px" y="0px"
	 viewBox="0 0 512 512" style="enable-background:new 0 0 512 512;" xml:space="preserve">
<path style="fill:#68BBF1;" d="M379.077,148.677l-49.231,49.231V97.477H60.062c-5.908,0-10.831,5.908-10.831,11.815v268.8h393.846
	V148.677H379.077z"/>
<path style="fill:#FFD05C;" d="M464.738,445.046H27.569C11.815,445.046,0,432.246,0,417.477v-10.831
	c0-15.754,12.8-27.569,27.569-27.569h436.185c15.754,0,27.569,12.8,27.569,27.569v10.831
	C492.308,432.246,479.508,445.046,464.738,445.046z"/>
<polygon style="fill:#FF7058;" points="391.877,488.369 100.431,488.369 40.369,445.046 452.923,445.046 "/>
<circle style="fill:#FFFFFF;" cx="246.154" cy="202.831" r="55.138"/>
<path style="fill:#314A5E;" d="M272.738,250.092c-7.877,4.923-16.738,7.877-26.585,7.877s-18.708-2.954-26.585-6.892
	c-41.354,11.815-70.892,49.231-70.892,94.523h195.938C344.615,299.323,314.092,261.908,272.738,250.092z"/>
<path style="fill:#E8E8E8;" d="M501.169,23.631H340.677c-5.908,0-10.831,4.923-10.831,10.831v162.462l49.231-49.231h122.092
	c5.908,0,10.831-4.923,10.831-10.831v-102.4C512,28.554,507.077,23.631,501.169,23.631z"/>
<g>
	<path style="fill:#B0AFB0;" d="M478.523,49.231h-115.2c-5.908,0-11.815,4.923-11.815,11.815s4.923,11.815,11.815,11.815h115.2
		c5.908,0,11.815-4.923,11.815-11.815S484.431,49.231,478.523,49.231z"/>
	<path style="fill:#B0AFB0;" d="M455.877,96.492h-69.908c-5.908,0-11.815,4.923-11.815,11.815c0,6.892,4.923,11.815,11.815,11.815
		h69.908c5.908,0,11.815-4.923,11.815-11.815C467.692,101.415,461.785,96.492,455.877,96.492z"/>
</g>
<path style="fill:#FFFFFF;" d="M284.554,423.385h-56.123c-5.908,0-11.815-4.923-11.815-11.815s4.923-11.815,11.815-11.815h56.123
	c5.908,0,11.815,4.923,11.815,11.815S290.462,423.385,284.554,423.385z"/>
<g>
</g>
<g>
</g>
<g>
</g>
<g>
</g>
<g>
</g>
<g>
</g>
<g>
</g>
<g>
</g>
<g>
</g>
<g>
</g>
<g>
</g>
<g>
</g>
<g>
</g>
<g>
</g>
<g>
</g>
</svg>
