<?xml version="1.0" encoding="iso-8859-1"?>
<!-- Generator: Adobe Illustrator 19.0.0, SVG Export Plug-In . SVG Version: 6.00 Build 0)  -->
<svg version="1.1" id="Capa_1" xmlns="http://www.w3.org/2000/svg" xmlns:xlink="http://www.w3.org/1999/xlink" x="0px" y="0px"
	 viewBox="0 0 512 512" style="enable-background:new 0 0 512 512;" xml:space="preserve">
<path style="fill:#314A5E;" d="M332.8,512H29.538c-5.908,0-9.846-3.938-9.846-9.846V9.846C19.692,3.938,23.631,0,29.538,0h302.277
	c5.908,0,9.846,3.938,9.846,9.846v492.308C342.646,508.062,337.723,512,332.8,512z"/>
<rect x="44.308" y="74.831" style="fill:#FFFFFF;" width="274.708" height="311.138"/>
<g>
	<path style="fill:#2B3A4D;" d="M214.646,48.246h-65.969c-5.908,0-10.831-4.923-10.831-10.831s4.923-10.831,10.831-10.831h65.969
		c5.908,0,10.831,4.923,10.831,10.831S220.554,48.246,214.646,48.246z"/>
	<circle style="fill:#2B3A4D;" cx="181.169" cy="448.985" r="35.446"/>
</g>
<path style="fill:#FF7058;" d="M404.677,113.231H301.292c-48.246,0-86.646,39.385-86.646,86.646l0,0
	c0,21.662,7.877,42.338,21.662,57.108l-10.831,67.938l68.923-38.4c1.969,0,4.923,0,7.877,0h103.385
	c48.246,0,86.646-39.385,86.646-86.646l0,0C492.308,152.615,452.923,113.231,404.677,113.231z"/>
<g>
	<circle style="fill:#FFFFFF;" cx="273.723" cy="200.862" r="22.646"/>
	<circle style="fill:#FFFFFF;" cx="353.477" cy="200.862" r="22.646"/>
	<circle style="fill:#FFFFFF;" cx="432.246" cy="200.862" r="22.646"/>
</g>
<g>
</g>
<g>
</g>
<g>
</g>
<g>
</g>
<g>
</g>
<g>
</g>
<g>
</g>
<g>
</g>
<g>
</g>
<g>
</g>
<g>
</g>
<g>
</g>
<g>
</g>
<g>
</g>
<g>
</g>
</svg>
