<?xml version="1.0" encoding="iso-8859-1"?>
<!-- Generator: Adobe Illustrator 19.0.0, SVG Export Plug-In . SVG Version: 6.00 Build 0)  -->
<svg version="1.1" id="Capa_1" xmlns="http://www.w3.org/2000/svg" xmlns:xlink="http://www.w3.org/1999/xlink" x="0px" y="0px"
	 viewBox="0 0 512 512" style="enable-background:new 0 0 512 512;" xml:space="preserve">
<circle style="fill:#FFD05C;" cx="80.738" cy="99.938" r="52.185"/>
<rect x="226.462" y="160.985" style="fill:#F2F2F2;" width="256.985" height="197.908"/>
<rect x="197.908" y="117.662" style="fill:#B0AFB0;" width="314.092" height="44.308"/>
<polygon style="fill:#C7C7C7;" points="365.292,412.062 365.292,358.892 344.615,358.892 344.615,412.062 256,412.062 256,464.246 
	276.677,464.246 276.677,432.738 344.615,432.738 344.615,464.246 365.292,464.246 365.292,432.738 433.231,432.738 
	433.231,464.246 453.908,464.246 453.908,412.062 "/>
<g>
	<rect x="267.815" y="266.338" style="fill:#4EA2DC;" width="20.677" height="54.154"/>
	<rect x="319.015" y="245.662" style="fill:#4EA2DC;" width="20.677" height="74.831"/>
	<rect x="370.215" y="224" style="fill:#4EA2DC;" width="20.677" height="95.508"/>
	<rect x="421.415" y="203.323" style="fill:#4EA2DC;" width="20.677" height="116.185"/>
</g>
<path style="fill:#FF7058;" d="M131.938,152.123c-28.554,28.554-73.846,28.554-102.4,0C11.815,164.923,0,184.615,0,208.246v127.015
	h34.462v124.062h35.446v-89.6h20.677v89.6h35.446V335.262h34.462V208.246C160.492,184.615,149.662,163.938,131.938,152.123z"/>
<g>
</g>
<g>
</g>
<g>
</g>
<g>
</g>
<g>
</g>
<g>
</g>
<g>
</g>
<g>
</g>
<g>
</g>
<g>
</g>
<g>
</g>
<g>
</g>
<g>
</g>
<g>
</g>
<g>
</g>
</svg>
