<?xml version="1.0" encoding="iso-8859-1"?>
<!-- Generator: Adobe Illustrator 19.0.0, SVG Export Plug-In . SVG Version: 6.00 Build 0)  -->
<svg version="1.1" id="Capa_1" xmlns="http://www.w3.org/2000/svg" xmlns:xlink="http://www.w3.org/1999/xlink" x="0px" y="0px"
	 viewBox="0 0 512 512" style="enable-background:new 0 0 512 512;" xml:space="preserve">
<path style="fill:#FF7058;" d="M452.923,196.923C452.923,305.231,256,512,256,512S59.077,305.231,59.077,196.923S147.692,0,256,0
	S452.923,87.631,452.923,196.923z"/>
<circle style="fill:#FFFFFF;" cx="256" cy="196.923" r="123.077"/>
<path style="fill:#4EA2DC;" d="M309.169,158.523c0,29.538-23.631,70.892-53.169,70.892c-29.538,0-53.169-41.354-53.169-70.892
	s23.631-53.169,53.169-53.169C285.538,105.354,309.169,128.985,309.169,158.523z"/>
<path style="fill:#314A5E;" d="M347.569,247.138c-40.369,71.877-142.769,71.877-183.138,0c7.877-20.677,25.6-23.631,42.338-27.569
	c28.554,36.431,69.908,36.431,97.477,0C320.985,223.508,339.692,226.462,347.569,247.138z"/>
<g>
</g>
<g>
</g>
<g>
</g>
<g>
</g>
<g>
</g>
<g>
</g>
<g>
</g>
<g>
</g>
<g>
</g>
<g>
</g>
<g>
</g>
<g>
</g>
<g>
</g>
<g>
</g>
<g>
</g>
</svg>
