<?xml version="1.0" encoding="iso-8859-1"?>
<!-- Generator: Adobe Illustrator 19.0.0, SVG Export Plug-In . SVG Version: 6.00 Build 0)  -->
<svg version="1.1" id="Capa_1" xmlns="http://www.w3.org/2000/svg" xmlns:xlink="http://www.w3.org/1999/xlink" x="0px" y="0px"
	 viewBox="0 0 512 512" style="enable-background:new 0 0 512 512;" xml:space="preserve">
<path style="fill:#C7C7C7;" d="M284.554,142.769c0,57.108-46.277,136.862-102.4,136.862S78.769,198.892,78.769,142.769
	s46.277-103.385,102.4-103.385S284.554,85.662,284.554,142.769z"/>
<path style="fill:#314A5E;" d="M283.569,292.431c0-9.846,0.985-18.708,3.938-28.554l-26.585-6.892
	c-47.262,57.108-110.277,57.108-157.538,0l-49.231,12.8C21.662,278.646,0,307.2,0,340.677v131.939h72.862v-83.692h20.677v83.692
	h176.246v-83.692h20.677v83.692h72.862v-70.892C317.046,386.954,283.569,343.631,283.569,292.431z"/>
<circle style="fill:#FFD05C;" cx="397.785" cy="292.431" r="114.215"/>
<path style="fill:#FFFFFF;" d="M401.723,285.538c4.923,0.985,9.846,2.954,14.769,3.938c4.923,1.969,9.846,3.938,13.785,5.908
	c8.862,5.908,12.8,14.769,12.8,25.6c0,9.846-3.938,17.723-11.815,23.631c-7.877,5.908-17.723,9.846-30.523,10.831v13.785
	c0,0.985,0,1.969-0.985,2.954c-0.985,0.985-1.969,0.985-2.954,0.985c-2.954,0-3.938-0.985-3.938-3.938v-13.785
	c-13.785-0.985-25.6-2.954-37.415-8.862c-2.954-1.969-4.923-3.938-4.923-5.908s0.985-4.923,1.969-5.908
	c0.985-0.985,2.954-1.969,4.923-1.969s3.938,0.985,5.908,1.969c7.877,3.938,18.708,5.908,30.523,5.908v-40.369
	c-12.8-2.954-21.662-6.892-26.585-9.846c-4.923-2.954-8.862-6.892-10.831-10.831c-2.954-3.938-3.938-8.862-3.938-13.785
	c0-4.923,0.985-9.846,2.954-13.785s3.938-7.877,7.877-10.831c7.877-6.892,17.723-10.831,30.523-11.815v-13.785
	c0-0.985,0-1.969,0.985-2.954c0.985-0.985,1.969-0.985,2.954-0.985c0.985,0,1.969,0,2.954,0.985
	c0.985,0.985,0.985,1.969,0.985,2.954v13.785c11.815,0,22.646,1.969,31.508,5.908c2.954,0.985,4.923,3.938,4.923,6.892
	c0,1.969-0.985,2.954-1.969,4.923c-0.985,1.969-2.954,1.969-3.938,1.969c-1.969,0-3.938,0-5.908-0.985
	c-6.892-2.954-15.754-3.938-24.615-3.938L401.723,285.538L401.723,285.538z M368.246,263.877c0,7.877,4.923,13.785,15.754,16.738
	c2.954,0.985,6.892,1.969,9.846,2.954v-39.385c-7.877,0.985-13.785,2.954-18.708,5.908
	C371.2,253.046,368.246,257.969,368.246,263.877z M401.723,340.677c11.815-0.985,19.692-4.923,23.631-11.815
	c0.985-2.954,1.969-4.923,1.969-7.877c0-2.954-0.985-5.908-1.969-6.892c-0.985-1.969-2.954-2.954-5.908-4.923
	c-2.954-1.969-9.846-3.938-17.723-6.892L401.723,340.677L401.723,340.677z"/>
<g>
</g>
<g>
</g>
<g>
</g>
<g>
</g>
<g>
</g>
<g>
</g>
<g>
</g>
<g>
</g>
<g>
</g>
<g>
</g>
<g>
</g>
<g>
</g>
<g>
</g>
<g>
</g>
<g>
</g>
</svg>
