<?xml version="1.0" encoding="iso-8859-1"?>
<!-- Generator: Adobe Illustrator 19.0.0, SVG Export Plug-In . SVG Version: 6.00 Build 0)  -->
<svg version="1.1" id="Capa_1" xmlns="http://www.w3.org/2000/svg" xmlns:xlink="http://www.w3.org/1999/xlink" x="0px" y="0px"
	 viewBox="0 0 512 512" style="enable-background:new 0 0 512 512;" xml:space="preserve">
<path style="fill:#F1553F;" d="M512,324.923c0-29.538-13.785-56.123-37.415-77.785C448,320,353.477,374.154,241.231,374.154
	c-32.492,0-64-4.923-92.554-12.8c22.646,54.154,93.538,93.538,178.215,93.538c37.415,0,72.862-7.877,101.415-21.662l66.954,41.354
	L473.6,403.692C497.231,382.031,512,354.462,512,324.923z"/>
<path style="fill:#FF7058;" d="M241.231,37.415C107.323,37.415,0,112.246,0,205.785c0,38.4,18.708,74.831,50.215,102.4
	l-28.554,91.569l86.646-54.154c38.4,18.708,83.692,28.554,132.923,28.554c132.923,0,241.231-75.815,241.231-168.369
	C481.477,112.246,374.154,37.415,241.231,37.415z"/>
<g>
	<circle style="fill:#FFFFFF;" cx="128.985" cy="205.785" r="37.415"/>
	<circle style="fill:#FFFFFF;" cx="241.231" cy="205.785" r="37.415"/>
	<circle style="fill:#FFFFFF;" cx="352.492" cy="205.785" r="37.415"/>
</g>
<g>
</g>
<g>
</g>
<g>
</g>
<g>
</g>
<g>
</g>
<g>
</g>
<g>
</g>
<g>
</g>
<g>
</g>
<g>
</g>
<g>
</g>
<g>
</g>
<g>
</g>
<g>
</g>
<g>
</g>
</svg>
