<?xml version="1.0" encoding="iso-8859-1"?>
<!-- Generator: Adobe Illustrator 19.0.0, SVG Export Plug-In . SVG Version: 6.00 Build 0)  -->
<svg version="1.1" id="Capa_1" xmlns="http://www.w3.org/2000/svg" xmlns:xlink="http://www.w3.org/1999/xlink" x="0px" y="0px"
	 viewBox="0 0 512 512" style="enable-background:new 0 0 512 512;" xml:space="preserve">
<g>
	<path style="fill:#FFD05C;" d="M451.939,148.677c0,43.323-35.446,105.354-78.769,105.354S294.4,192,294.4,148.677
		s35.446-78.769,78.769-78.769S451.939,104.369,451.939,148.677z"/>
	<path style="fill:#FFD05C;" d="M253.046,155.569c0,50.215-41.354,122.092-91.569,122.092s-91.569-71.877-91.569-122.092
		S111.262,64,161.477,64S253.046,104.369,253.046,155.569z"/>
</g>
<path style="fill:#3095CE;" d="M470.646,246.154l-30.523-7.877c-38.4,49.231-94.523,50.215-134.892,0l-30.523,7.877
	c-9.846,2.954-18.708,7.877-25.6,14.769l25.6,6.892c28.554,7.877,47.262,33.477,47.262,62.031v70.892H512V300.308
	C512,274.708,495.262,253.046,470.646,246.154z"/>
<path style="fill:#68BBF1;" d="M274.708,268.8l-39.385-10.831c-43.323,54.154-105.354,54.154-148.677,0L47.262,268.8
	C19.692,276.677,0,301.292,0,330.831V448h322.954V330.831C322.954,301.292,303.262,276.677,274.708,268.8z"/>
<g>
</g>
<g>
</g>
<g>
</g>
<g>
</g>
<g>
</g>
<g>
</g>
<g>
</g>
<g>
</g>
<g>
</g>
<g>
</g>
<g>
</g>
<g>
</g>
<g>
</g>
<g>
</g>
<g>
</g>
</svg>
