<?xml version="1.0" encoding="iso-8859-1"?>
<!-- Generator: Adobe Illustrator 19.0.0, SVG Export Plug-In . SVG Version: 6.00 Build 0)  -->
<svg version="1.1" id="Capa_1" xmlns="http://www.w3.org/2000/svg" xmlns:xlink="http://www.w3.org/1999/xlink" x="0px" y="0px"
	 viewBox="0 0 511.015 511.015" style="enable-background:new 0 0 511.015 511.015;" xml:space="preserve">
<path style="fill:#FFD05C;" d="M229.415,229.908c0,42.338-34.462,108.308-76.8,108.308s-76.8-65.969-76.8-108.308
	s34.462-72.862,76.8-72.862S229.415,187.569,229.415,229.908z"/>
<path style="fill:#4EA2DC;" d="M380.062,51.692c-72.862,0-130.954,42.338-130.954,95.508c0,29.538,18.708,57.108,48.246,73.846
	l-32.492,60.062l81.723-42.338c10.831,1.969,21.662,2.954,33.477,2.954c72.862,0,130.954-42.338,130.954-95.508
	S451.938,51.692,380.062,51.692z"/>
<g>
	<path style="fill:#FFFFFF;" d="M333.785,114.708h92.554c5.908,0,10.831-4.923,10.831-10.831c0-5.908-4.923-10.831-10.831-10.831
		h-92.554c-5.908,0-10.831,4.923-10.831,10.831C322.954,109.785,327.877,114.708,333.785,114.708z"/>
	<path style="fill:#FFFFFF;" d="M426.339,178.708h-92.554c-5.908,0-10.831,4.923-10.831,10.831s4.923,10.831,10.831,10.831h92.554
		c5.908,0,10.831-4.923,10.831-10.831S432.246,178.708,426.339,178.708z"/>
	<path style="fill:#FFFFFF;" d="M454.892,136.369H305.231c-5.908,0-10.831,4.923-10.831,10.831c0,5.908,4.923,10.831,10.831,10.831
		h149.662c5.908,0,10.831-4.923,10.831-10.831C465.723,140.308,460.8,136.369,454.892,136.369z"/>
</g>
<path style="fill:#FF7058;" d="M306.215,419.939c-1.969-36.431-23.631-67.938-56.123-84.677
	c-8.862-3.938-19.692-8.862-32.492-13.785c-38.4,50.215-90.585,50.215-128.985,0c-12.8,4.923-23.631,9.846-32.492,13.785
	C23.631,351.015,1.969,383.508,0,419.938c0,3.938,0,39.385,0,39.385h307.2C306.215,459.323,306.215,424.862,306.215,419.939z"/>
<g>
</g>
<g>
</g>
<g>
</g>
<g>
</g>
<g>
</g>
<g>
</g>
<g>
</g>
<g>
</g>
<g>
</g>
<g>
</g>
<g>
</g>
<g>
</g>
<g>
</g>
<g>
</g>
<g>
</g>
</svg>
