<?xml version="1.0" encoding="iso-8859-1"?>
<!-- Generator: Adobe Illustrator 19.0.0, SVG Export Plug-In . SVG Version: 6.00 Build 0)  -->
<svg version="1.1" id="Capa_1" xmlns="http://www.w3.org/2000/svg" xmlns:xlink="http://www.w3.org/1999/xlink" x="0px" y="0px"
	 viewBox="0 0 512 512" style="enable-background:new 0 0 512 512;" xml:space="preserve">
<g>
	<circle style="fill:#E8E8E8;" cx="123.077" cy="251.569" r="68.923"/>
	<circle style="fill:#E8E8E8;" cx="388.923" cy="317.538" r="68.923"/>
</g>
<path style="fill:#FFD05C;" d="M497.231,100.923c0-47.262-48.246-84.677-108.308-84.677s-108.308,38.4-108.308,84.677
	c0,47.262,48.246,84.677,108.308,84.677c0.985,0,1.969,0,1.969,0l31.508,34.462l10.831-42.338
	C470.646,164.923,497.231,135.385,497.231,100.923z"/>
<path style="fill:#FC8C7A;" d="M281.6,100.923c0-25.6,13.785-48.246,36.431-64H192c-5.908,0-10.831,4.923-10.831,10.831v105.354
	c0,5.908,4.923,10.831,10.831,10.831h33.477l-13.785,56.123l69.908-56.123h35.446C295.385,149.169,281.6,126.523,281.6,100.923z"/>
<g>
	<path style="fill:#4EA2DC;" d="M181.169,321.477c-33.477,27.569-82.708,28.554-116.185,0C26.585,342.154,0,382.523,0,428.8h245.169
		C245.169,382.523,219.569,342.154,181.169,321.477z"/>
	<path style="fill:#4EA2DC;" d="M447.015,387.446c-33.477,28.554-82.708,28.554-116.185,0
		c-38.4,20.677-64.985,61.046-64.985,108.308H512C512,448.492,485.415,408.123,447.015,387.446z"/>
</g>
<g>
</g>
<g>
</g>
<g>
</g>
<g>
</g>
<g>
</g>
<g>
</g>
<g>
</g>
<g>
</g>
<g>
</g>
<g>
</g>
<g>
</g>
<g>
</g>
<g>
</g>
<g>
</g>
<g>
</g>
</svg>
