<?xml version="1.0" encoding="iso-8859-1"?>
<!-- Generator: Adobe Illustrator 19.0.0, SVG Export Plug-In . SVG Version: 6.00 Build 0)  -->
<svg version="1.1" id="Capa_1" xmlns="http://www.w3.org/2000/svg" xmlns:xlink="http://www.w3.org/1999/xlink" x="0px" y="0px"
	 viewBox="0 0 512 512" style="enable-background:new 0 0 512 512;" xml:space="preserve">
<g>
	<circle style="fill:#68BBF1;" cx="419.446" cy="187.077" r="52.185"/>
	<circle style="fill:#68BBF1;" cx="93.538" cy="187.077" r="52.185"/>
	<circle style="fill:#68BBF1;" cx="256" cy="180.185" r="66.954"/>
</g>
<path style="fill:#F1553F;" d="M303.262,260.923L256,351.508l-47.262-90.585c-42.338,18.708-71.877,60.062-71.877,109.292v28.554
	h238.277v-28.554C375.138,320.985,345.6,278.646,303.262,260.923z"/>
<g>
	<path style="fill:#FF7058;" d="M171.323,285.538c-9.846-15.754-24.615-27.569-41.354-34.462l-37.415,70.892l-37.415-70.892
		C22.646,265.846,0,298.338,0,336.738v22.646h137.846C139.815,330.831,152.615,305.231,171.323,285.538z"/>
	<path style="fill:#FF7058;" d="M455.877,251.077l-37.415,70.892l-37.415-70.892c-16.738,6.892-31.508,19.692-41.354,34.462
		c18.708,18.708,31.508,44.308,34.462,72.862H512v-22.646C512,298.338,489.354,265.846,455.877,251.077z"/>
</g>
<g>
</g>
<g>
</g>
<g>
</g>
<g>
</g>
<g>
</g>
<g>
</g>
<g>
</g>
<g>
</g>
<g>
</g>
<g>
</g>
<g>
</g>
<g>
</g>
<g>
</g>
<g>
</g>
<g>
</g>
</svg>
