<?xml version="1.0" encoding="iso-8859-1"?>
<!-- Generator: Adobe Illustrator 19.0.0, SVG Export Plug-In . SVG Version: 6.00 Build 0)  -->
<svg version="1.1" id="Capa_1" xmlns="http://www.w3.org/2000/svg" xmlns:xlink="http://www.w3.org/1999/xlink" x="0px" y="0px"
	 viewBox="0 0 511.057 511.057" style="enable-background:new 0 0 511.057 511.057;" xml:space="preserve">
<path style="fill:#4EA2DC;" d="M173.9,179.793c0-20.677,13.177-36.431,32.87-36.431h133.908v-29.538
	c0-20.677-16.738-36.431-36.431-36.431H36.431C16.738,75.423,0,92.162,0,112.839v149.662c0,20.677,16.738,36.431,36.431,36.431
	h26.585v68.923l86.646-68.923h28.152L173.9,179.793L173.9,179.793z"/>
<path style="fill:#68BBF1;" d="M475.569,142.377H207.754c-20.677,0-36.431,16.738-36.431,36.431V328.47
	c0,20.677,16.738,36.431,36.431,36.431h153.6L448,433.823V364.9h26.585c20.677,0,36.431-16.738,36.431-36.431V179.793
	C512,159.116,495.262,142.377,475.569,142.377z"/>
<g>
	<path style="fill:#FFFFFF;" d="M265.846,209.331h150.646c5.908,0,9.846-3.938,9.846-9.846s-3.938-9.846-9.846-9.846H265.846
		c-5.908,0-9.846,3.938-9.846,9.846C256,204.408,260.923,209.331,265.846,209.331z"/>
	<path style="fill:#FFFFFF;" d="M448.985,244.777H234.338c-5.908,0-9.846,3.938-9.846,9.846c0,5.908,3.938,9.846,9.846,9.846
		h214.646c5.908,0,9.846-3.938,9.846-9.846C458.831,248.716,453.908,244.777,448.985,244.777z"/>
	<path style="fill:#FFFFFF;" d="M416.492,299.916H265.846c-5.908,0-9.846,3.938-9.846,9.846c0,5.908,3.938,9.846,9.846,9.846
		h150.646c5.908,0,9.846-3.938,9.846-9.846S422.4,299.916,416.492,299.916z"/>
</g>
<g>
</g>
<g>
</g>
<g>
</g>
<g>
</g>
<g>
</g>
<g>
</g>
<g>
</g>
<g>
</g>
<g>
</g>
<g>
</g>
<g>
</g>
<g>
</g>
<g>
</g>
<g>
</g>
<g>
</g>
</svg>
