<?xml version="1.0" encoding="iso-8859-1"?>
<!-- Generator: Adobe Illustrator 19.0.0, SVG Export Plug-In . SVG Version: 6.00 Build 0)  -->
<svg version="1.1" id="Capa_1" xmlns="http://www.w3.org/2000/svg" xmlns:xlink="http://www.w3.org/1999/xlink" x="0px" y="0px"
	 viewBox="0 0 512 512" style="enable-background:new 0 0 512 512;" xml:space="preserve">
<path style="fill:#C7C7C7;" d="M305.231,100.431C305.231,128,283.569,166.4,256,166.4c-27.569,0-49.231-38.4-49.231-65.969
	S228.431,51.2,256,51.2C283.569,51.2,305.231,73.846,305.231,100.431z"/>
<path style="fill:#68BBF1;" d="M317.046,162.462l-11.815-3.938c-28.554,38.4-69.908,38.4-98.462,0l-11.815,2.954
	c-14.769,3.938-25.6,17.723-25.6,33.477v63.015h174.277v-63.015C342.646,180.185,332.8,166.4,317.046,162.462z"/>
<path style="fill:#E8E8E8;" d="M435.2,249.108H76.8c-5.908,0-9.846,4.923-9.846,9.846v49.231c0,5.908,4.923,9.846,9.846,9.846
	c4.923,0,9.846-4.923,9.846-9.846v-38.4h159.508v38.4c0,5.908,4.923,9.846,9.846,9.846c4.923,0,9.846-4.923,9.846-9.846v-38.4
	h158.523v38.4c0,5.908,4.923,9.846,9.846,9.846c5.908,0,9.846-4.923,9.846-9.846v-49.231
	C446.031,253.046,441.108,249.108,435.2,249.108z"/>
<g>
	<circle style="fill:#FFD05C;" cx="75.815" cy="349.538" r="42.338"/>
	<circle style="fill:#FFD05C;" cx="256" cy="349.538" r="42.338"/>
	<circle style="fill:#FFD05C;" cx="435.2" cy="349.538" r="42.338"/>
</g>
<path style="fill:#FC8C7A;" d="M119.138,396.8c-24.615,21.662-61.046,21.662-84.677,0C13.785,410.585,0,434.215,0,460.8h152.615
	C152.615,434.215,138.831,410.585,119.138,396.8z"/>
<path style="fill:#314A5E;" d="M298.338,396.8c-24.615,21.662-61.046,21.662-84.677,0c-20.677,13.785-33.477,36.431-33.477,63.015
	H332.8C332.8,434.215,319.015,410.585,298.338,396.8z"/>
<path style="fill:#FC8C7A;" d="M477.538,396.8c-24.615,21.662-61.046,21.662-84.677,0c-20.677,13.785-33.477,36.431-33.477,63.015
	H512C512,434.215,498.215,410.585,477.538,396.8z"/>
<g>
</g>
<g>
</g>
<g>
</g>
<g>
</g>
<g>
</g>
<g>
</g>
<g>
</g>
<g>
</g>
<g>
</g>
<g>
</g>
<g>
</g>
<g>
</g>
<g>
</g>
<g>
</g>
<g>
</g>
</svg>
