<?xml version="1.0" encoding="iso-8859-1"?>
<!-- Generator: Adobe Illustrator 19.0.0, SVG Export Plug-In . SVG Version: 6.00 Build 0)  -->
<svg version="1.1" id="Capa_1" xmlns="http://www.w3.org/2000/svg" xmlns:xlink="http://www.w3.org/1999/xlink" x="0px" y="0px"
	 viewBox="0 0 512.985 512.985" style="enable-background:new 0 0 512.985 512.985;" xml:space="preserve">
<g>
	<circle style="fill:#C7C7C7;" cx="131.926" cy="147.692" r="68.923"/>
	<circle style="fill:#C7C7C7;" cx="381.033" cy="237.292" r="68.923"/>
</g>
<g>
	<path style="fill:#FFBA40;" d="M497.218,93.538l-54.154,54.154l-53.169-53.169h28.554c-15.754-39.385-54.154-67.938-99.446-67.938
		c-19.692,0-37.415,4.923-53.169,14.769C287.495,16.738,319.003,0,354.449,0c57.108,0,104.369,40.369,115.2,93.538H497.218z"/>
	<path style="fill:#FFBA40;" d="M76.787,418.462l53.169-53.169l53.169,53.169h-28.554c15.754,39.385,54.154,67.938,99.446,67.938
		c19.692,0,37.415-4.923,53.169-14.769c-21.662,24.615-53.169,41.354-88.615,41.354c-57.108,0-104.369-40.369-115.2-93.538H76.787
		V418.462z"/>
</g>
<path style="fill:#4EA2DC;" d="M188.049,215.631c-32.492,26.585-78.769,26.585-112.246,0
	C36.418,236.308,9.833,277.662,9.833,324.923h245.169C255.003,277.662,228.418,236.308,188.049,215.631z"/>
<path style="fill:#FF7058;" d="M437.156,305.231c-32.492,26.585-78.769,26.585-112.246,0
	c-39.385,20.677-66.954,61.046-66.954,109.292h245.169C504.11,367.262,476.541,325.908,437.156,305.231z"/>
<g>
</g>
<g>
</g>
<g>
</g>
<g>
</g>
<g>
</g>
<g>
</g>
<g>
</g>
<g>
</g>
<g>
</g>
<g>
</g>
<g>
</g>
<g>
</g>
<g>
</g>
<g>
</g>
<g>
</g>
</svg>
