<?xml version="1.0" encoding="iso-8859-1"?>
<!-- Generator: Adobe Illustrator 19.0.0, SVG Export Plug-In . SVG Version: 6.00 Build 0)  -->
<svg version="1.1" id="Capa_1" xmlns="http://www.w3.org/2000/svg" xmlns:xlink="http://www.w3.org/1999/xlink" x="0px" y="0px"
	 viewBox="0 0 512 512" style="enable-background:new 0 0 512 512;" xml:space="preserve">
<path style="fill:#FC8C7A;" d="M167.385,151.138h332.8c6.892,0,11.815,4.923,11.815,11.815v310.154l-68.923-80.738H179.2
	c-6.892,0-11.815-4.923-11.815-11.815V151.138z"/>
<path style="fill:#FF7058;" d="M179.2,151.138h259.938V50.708c0-6.892-4.923-11.815-11.815-11.815H11.815
	C4.923,38.892,0,44.8,0,50.708v398.769l91.569-103.385h75.815V162.954C167.385,157.046,172.308,151.138,179.2,151.138z"/>
<g>
	<path style="fill:#FFFFFF;" d="M259.938,230.892h158.523c6.892,0,11.815-4.923,11.815-11.815s-4.923-11.815-11.815-11.815H259.938
		c-6.892,0-11.815,4.923-11.815,11.815C249.108,225.969,254.031,230.892,259.938,230.892z"/>
	<path style="fill:#FFFFFF;" d="M445.046,260.431H234.338c-6.892,0-11.815,4.923-11.815,11.815c0,6.892,4.923,11.815,11.815,11.815
		h210.708c6.892,0,11.815-4.923,11.815-11.815C456.862,265.354,451.939,260.431,445.046,260.431z"/>
	<path style="fill:#FFFFFF;" d="M418.462,312.615H259.938c-6.892,0-11.815,4.923-11.815,11.815c0,6.892,4.923,11.815,11.815,11.815
		h158.523c6.892,0,11.815-4.923,11.815-11.815C430.277,318.523,425.354,312.615,418.462,312.615z"/>
</g>
<g>
</g>
<g>
</g>
<g>
</g>
<g>
</g>
<g>
</g>
<g>
</g>
<g>
</g>
<g>
</g>
<g>
</g>
<g>
</g>
<g>
</g>
<g>
</g>
<g>
</g>
<g>
</g>
<g>
</g>
</svg>
