<?xml version="1.0" encoding="iso-8859-1"?>
<!-- Generator: Adobe Illustrator 19.0.0, SVG Export Plug-In . SVG Version: 6.00 Build 0)  -->
<svg version="1.1" id="Capa_1" xmlns="http://www.w3.org/2000/svg" xmlns:xlink="http://www.w3.org/1999/xlink" x="0px" y="0px"
	 viewBox="0 0 512 512" style="enable-background:new 0 0 512 512;" xml:space="preserve">
<g>
	<circle style="fill:#FFD05C;" cx="121.108" cy="166.4" r="67.938"/>
	<circle style="fill:#FFD05C;" cx="389.908" cy="166.4" r="67.938"/>
</g>
<circle style="fill:#3095CE;" cx="256" cy="320.985" r="92.554"/>
<path style="fill:#FFFFFF;" d="M308.185,311.138h-43.323v-43.323c0-4.923-3.938-8.862-8.862-8.862c-4.923,0-8.862,3.938-8.862,8.862
	v43.323h-43.323c-4.923,0-8.862,3.938-8.862,8.862c0,4.923,3.938,8.862,8.862,8.862h42.338v43.323c0,4.923,3.938,8.862,8.862,8.862
	s8.862-3.938,8.862-8.862v-43.323H307.2c4.923,0,8.862-3.938,8.862-8.862C317.046,316.062,313.108,311.138,308.185,311.138z"/>
<g>
	<path style="fill:#FF7058;" d="M66.954,234.338C27.569,254.031,0,295.385,0,342.646h165.415
		c-1.969-6.892-2.954-13.785-2.954-21.662c0-29.538,13.785-55.138,34.462-71.877c-6.892-5.908-14.769-10.831-22.646-14.769
		C143.754,259.938,98.462,259.938,66.954,234.338z"/>
	<path style="fill:#FF7058;" d="M512,342.646c0-47.262-27.569-88.615-66.954-108.308c-31.508,25.6-76.8,25.6-109.292,0
		c-7.877,3.938-15.754,8.862-22.646,14.769c20.677,16.738,34.462,43.323,34.462,71.877c0,7.877-0.985,14.769-2.954,21.662H512z"/>
</g>
<g>
</g>
<g>
</g>
<g>
</g>
<g>
</g>
<g>
</g>
<g>
</g>
<g>
</g>
<g>
</g>
<g>
</g>
<g>
</g>
<g>
</g>
<g>
</g>
<g>
</g>
<g>
</g>
<g>
</g>
</svg>
