<?xml version="1.0" encoding="iso-8859-1"?>
<!-- Generator: Adobe Illustrator 19.0.0, SVG Export Plug-In . SVG Version: 6.00 Build 0)  -->
<svg version="1.1" id="Capa_1" xmlns="http://www.w3.org/2000/svg" xmlns:xlink="http://www.w3.org/1999/xlink" x="0px" y="0px"
	 viewBox="0 0 512 512" style="enable-background:new 0 0 512 512;" xml:space="preserve">
<g>
	<circle style="fill:#FFD05C;" cx="256" cy="96" r="54.154"/>
	<circle style="fill:#FFD05C;" cx="96.492" cy="329.354" r="54.154"/>
	<circle style="fill:#FFD05C;" cx="414.523" cy="329.354" r="54.154"/>
</g>
<path style="fill:#B0AFB0;" d="M315.077,366.769l-48.246-48.246v-46.277c0-5.908-4.923-10.831-10.831-10.831
	c-5.908,0-10.831,4.923-10.831,10.831v46.277l-48.246,48.246c-3.938,3.938-3.938,10.831,0,14.769s10.831,3.938,14.769,0L256,337.231
	l44.308,44.308c3.938,3.938,10.831,3.938,14.769,0C319.015,377.6,319.015,370.708,315.077,366.769z"/>
<g>
	<path style="fill:#314A5E;" d="M305.231,152.123c-28.554,24.615-69.908,24.615-98.462,0
		c-28.554,16.738-47.262,48.246-47.262,83.692h193.969C352.492,200.369,333.785,168.862,305.231,152.123z"/>
	<path style="fill:#314A5E;" d="M145.723,386.462c-28.554,24.615-69.908,24.615-98.462,0C18.708,403.2,0,434.708,0,470.154h193.969
		C193.969,433.723,174.277,403.2,145.723,386.462z"/>
	<path style="fill:#314A5E;" d="M463.754,386.462c-28.554,24.615-69.908,24.615-98.462,0
		c-28.554,16.738-47.262,48.246-47.262,83.692H512C512,433.723,492.308,403.2,463.754,386.462z"/>
</g>
<g>
</g>
<g>
</g>
<g>
</g>
<g>
</g>
<g>
</g>
<g>
</g>
<g>
</g>
<g>
</g>
<g>
</g>
<g>
</g>
<g>
</g>
<g>
</g>
<g>
</g>
<g>
</g>
<g>
</g>
</svg>
