<?xml version="1.0" encoding="iso-8859-1"?>
<!-- Generator: Adobe Illustrator 19.0.0, SVG Export Plug-In . SVG Version: 6.00 Build 0)  -->
<svg version="1.1" id="Capa_1" xmlns="http://www.w3.org/2000/svg" xmlns:xlink="http://www.w3.org/1999/xlink" x="0px" y="0px"
	 viewBox="0 0 511.035 511.035" style="enable-background:new 0 0 511.035 511.035;" xml:space="preserve">
<circle style="fill:#C7C7C7;" cx="138.831" cy="261.425" r="77.785"/>
<path style="fill:#FC8C7A;" d="M434.215,48.748H323.938c-43.323,0-77.785,35.446-77.785,78.769c0,20.677,7.877,39.385,20.677,53.169
	l-20.677,57.108l52.185-36.431c7.877,2.954,16.738,4.923,25.6,4.923h109.292c43.323,0,77.785-35.446,77.785-77.785
	C512,84.195,476.554,48.748,434.215,48.748z"/>
<g>
	<path style="fill:#FFFFFF;" d="M455.877,94.041H301.292c-5.908,0-10.831,4.923-10.831,10.831c0,5.908,4.923,10.831,10.831,10.831
		h154.585c5.908,0,10.831-4.923,10.831-10.831C466.708,98.964,462.769,94.041,455.877,94.041z"/>
	<path style="fill:#FFFFFF;" d="M425.354,138.348H332.8c-5.908,0-10.831,4.923-10.831,10.831c0,5.908,4.923,10.831,10.831,10.831
		h92.554c5.908,0,10.831-4.923,10.831-10.831C436.185,143.272,431.262,138.348,425.354,138.348z"/>
</g>
<path style="fill:#314A5E;" d="M201.846,338.225c-36.431,29.538-89.6,30.523-126.031,0C30.523,361.856,0,408.133,0,462.287h277.662
	C277.662,408.133,246.154,360.872,201.846,338.225z"/>
<g>
</g>
<g>
</g>
<g>
</g>
<g>
</g>
<g>
</g>
<g>
</g>
<g>
</g>
<g>
</g>
<g>
</g>
<g>
</g>
<g>
</g>
<g>
</g>
<g>
</g>
<g>
</g>
<g>
</g>
</svg>
