<?xml version="1.0" encoding="iso-8859-1"?>
<!-- Generator: Adobe Illustrator 19.0.0, SVG Export Plug-In . SVG Version: 6.00 Build 0)  -->
<svg version="1.1" id="Capa_1" xmlns="http://www.w3.org/2000/svg" xmlns:xlink="http://www.w3.org/1999/xlink" x="0px" y="0px"
	 viewBox="0 0 512 512" style="enable-background:new 0 0 512 512;" xml:space="preserve">
<g>
	<circle style="fill:#FFD05C;" cx="99.446" cy="311.631" r="56.123"/>
	<circle style="fill:#FFD05C;" cx="412.554" cy="311.631" r="56.123"/>
	<circle style="fill:#FFD05C;" cx="256" cy="286.031" r="73.846"/>
</g>
<path style="fill:#FC8C7A;" d="M406.646,35.938c-55.138,0-99.446,33.477-99.446,74.831c0,21.662,11.815,40.369,31.508,54.154
	l-8.862,42.338l44.308-26.585c9.846,2.954,21.662,3.938,32.492,3.938c55.138,0,99.446-33.477,99.446-74.831
	C506.092,69.415,461.785,35.938,406.646,35.938z"/>
<g>
	<path style="fill:#FFFFFF;" d="M366.277,96.985h-22.646c-5.908,0-10.831,4.923-10.831,10.831c0,5.908,4.923,10.831,10.831,10.831
		h22.646c5.908,0,10.831-4.923,10.831-10.831C377.108,101.908,372.185,96.985,366.277,96.985z"/>
	<path style="fill:#FFFFFF;" d="M418.462,96.985h-22.646c-5.908,0-10.831,4.923-10.831,10.831c0,5.908,4.923,10.831,10.831,10.831
		h22.646c5.908,0,10.831-4.923,10.831-10.831C429.292,101.908,424.369,96.985,418.462,96.985z"/>
	<path style="fill:#FFFFFF;" d="M470.646,96.985H448c-5.908,0-10.831,4.923-10.831,10.831c0,5.908,4.923,10.831,10.831,10.831
		h22.646c5.908,0,10.831-4.923,10.831-10.831C481.477,101.908,476.554,96.985,470.646,96.985z"/>
</g>
<g>
	<path style="fill:#68BBF1;" d="M48.246,369.723C19.692,387.446,0,418.954,0,454.4h126.031
		c4.923-28.554,18.708-54.154,39.385-73.846c-4.923-3.938-9.846-7.877-15.754-11.815C121.108,395.323,77.785,395.323,48.246,369.723
		z"/>
	<path style="fill:#68BBF1;" d="M463.754,369.723c-29.538,25.6-71.877,25.6-101.415,0c-5.908,2.954-10.831,6.892-15.754,11.815
		c20.677,19.692,34.462,44.308,39.385,73.846H512C512,418.954,492.308,386.462,463.754,369.723z"/>
</g>
<path style="fill:#314A5E;" d="M317.046,359.877c-35.446,29.538-85.662,29.538-121.108,0
	c-42.338,21.662-70.892,65.969-70.892,116.185h263.877C387.938,425.846,358.4,382.523,317.046,359.877z"/>
<g>
</g>
<g>
</g>
<g>
</g>
<g>
</g>
<g>
</g>
<g>
</g>
<g>
</g>
<g>
</g>
<g>
</g>
<g>
</g>
<g>
</g>
<g>
</g>
<g>
</g>
<g>
</g>
<g>
</g>
</svg>
