<?xml version="1.0" encoding="iso-8859-1"?>
<!-- Generator: Adobe Illustrator 19.0.0, SVG Export Plug-In . SVG Version: 6.00 Build 0)  -->
<svg version="1.1" id="Capa_1" xmlns="http://www.w3.org/2000/svg" xmlns:xlink="http://www.w3.org/1999/xlink" x="0px" y="0px"
	 viewBox="0 0 512 512" style="enable-background:new 0 0 512 512;" xml:space="preserve">
<path style="fill:#E8E8E8;" d="M428.308,317.046H265.846v-66.954c0-5.908-4.923-9.846-9.846-9.846c-4.923,0-9.846,4.923-9.846,9.846
	v66.954H83.692c-5.908,0-9.846,4.923-9.846,9.846v60.062c0,5.908,4.923,9.846,9.846,9.846c5.908,0,9.846-4.923,9.846-9.846v-50.215
	h152.615v50.215c0,5.908,4.923,9.846,9.846,9.846c4.923,0,9.846-4.923,9.846-9.846v-50.215h151.631v50.215
	c0,5.908,4.923,9.846,9.846,9.846c5.908,0,9.846-4.923,9.846-9.846v-60.062C438.154,321.969,433.231,317.046,428.308,317.046z"/>
<circle style="fill:#FF7058;" cx="256" cy="125.046" r="125.046"/>
<circle style="fill:#FFFFFF;" cx="256" cy="105.354" r="58.092"/>
<g>
	<circle style="fill:#68BBF1;" cx="83.692" cy="449.969" r="62.031"/>
	<circle style="fill:#68BBF1;" cx="256" cy="449.969" r="62.031"/>
	<circle style="fill:#68BBF1;" cx="428.308" cy="449.969" r="62.031"/>
</g>
<path style="fill:#FFD05C;" d="M307.2,165.415c-29.538,25.6-72.862,25.6-102.4,0c-17.723,9.846-32.492,25.6-41.354,43.323
	c22.646,25.6,56.123,41.354,92.554,41.354s69.908-15.754,92.554-41.354C339.692,190.031,324.923,175.262,307.2,165.415z"/>
<g>
</g>
<g>
</g>
<g>
</g>
<g>
</g>
<g>
</g>
<g>
</g>
<g>
</g>
<g>
</g>
<g>
</g>
<g>
</g>
<g>
</g>
<g>
</g>
<g>
</g>
<g>
</g>
<g>
</g>
</svg>
