<?xml version="1.0" encoding="iso-8859-1"?>
<!-- Generator: Adobe Illustrator 19.0.0, SVG Export Plug-In . SVG Version: 6.00 Build 0)  -->
<svg version="1.1" id="Capa_1" xmlns="http://www.w3.org/2000/svg" xmlns:xlink="http://www.w3.org/1999/xlink" x="0px" y="0px"
	 viewBox="0 0 512 512" style="enable-background:new 0 0 512 512;" xml:space="preserve">
<path style="fill:#FC8C7A;" d="M321.969,89.6c-47.262,0-90.585,19.692-121.108,52.185c13.785,14.769,22.646,35.446,22.646,58.092
	V358.4h-33.477c30.523,39.385,77.785,64.985,131.938,64.985c91.569,0,166.4-74.831,166.4-166.4S414.523,89.6,321.969,89.6z"/>
<circle style="fill:#C7C7C7;" cx="124.062" cy="64.985" r="64.985"/>
<g>
	<path style="fill:#FFFFFF;" d="M321.969,155.569c5.908,0,9.846-4.923,9.846-9.846V128c0-5.908-4.923-9.846-9.846-9.846
		c-4.923,0-9.846,4.923-9.846,9.846v16.738C312.123,150.646,317.046,155.569,321.969,155.569z"/>
	<path style="fill:#FFFFFF;" d="M379.077,246.154h-27.569c-2.954-8.862-10.831-16.738-19.692-19.692v-45.292
		c0-5.908-4.923-9.846-9.846-9.846c-4.923,0-9.846,4.923-9.846,9.846v45.292c-12.8,3.938-21.662,15.754-21.662,29.538
		c0,17.723,13.785,31.508,31.508,31.508c13.785,0,25.6-8.862,29.538-21.662h27.569c5.908,0,9.846-4.923,9.846-9.846
		C388.923,251.077,384.985,246.154,379.077,246.154z M321.969,267.815c-5.908,0-11.815-4.923-11.815-11.815
		c0-5.908,4.923-11.815,11.815-11.815c5.908,0,11.815,4.923,11.815,11.815C333.785,261.908,328.862,267.815,321.969,267.815z"/>
	<path style="fill:#FFFFFF;" d="M321.969,356.431c-5.908,0-9.846,4.923-9.846,9.846V384c0,5.908,4.923,9.846,9.846,9.846
		c4.923,0,9.846-4.923,9.846-9.846v-16.738C332.8,361.354,327.877,356.431,321.969,356.431z"/>
	<path style="fill:#FFFFFF;" d="M449.969,246.154h-16.738c-5.908,0-9.846,4.923-9.846,9.846c0,4.923,4.923,9.846,9.846,9.846h16.738
		c5.908,0,9.846-4.923,9.846-9.846C459.815,251.077,455.877,246.154,449.969,246.154z"/>
</g>
<path style="fill:#3095CE;" d="M182.154,126.031c-32.492,31.508-84.677,31.508-117.169,0
	c-24.615,14.769-41.354,42.338-41.354,73.846V358.4h43.323V512h47.262V400.738c0-5.908,4.923-9.846,9.846-9.846
	c5.908,0,9.846,4.923,9.846,9.846V512h47.262V357.415h43.323V198.892C224.492,168.369,207.754,140.8,182.154,126.031z"/>
<g>
</g>
<g>
</g>
<g>
</g>
<g>
</g>
<g>
</g>
<g>
</g>
<g>
</g>
<g>
</g>
<g>
</g>
<g>
</g>
<g>
</g>
<g>
</g>
<g>
</g>
<g>
</g>
<g>
</g>
</svg>
