<?xml version="1.0" encoding="iso-8859-1"?>
<!-- Generator: Adobe Illustrator 19.0.0, SVG Export Plug-In . SVG Version: 6.00 Build 0)  -->
<svg version="1.1" id="Capa_1" xmlns="http://www.w3.org/2000/svg" xmlns:xlink="http://www.w3.org/1999/xlink" x="0px" y="0px"
	 viewBox="0 0 512 512" style="enable-background:new 0 0 512 512;" xml:space="preserve">
<path style="fill:#314A5E;" d="M512,309.169V202.831l-49.231-16.738c-2.954-8.862-6.892-17.723-10.831-26.585l22.646-46.277
	l-75.815-75.815l-46.277,22.646c-7.877-4.923-16.738-7.877-26.585-10.831L309.169,0H202.831l-16.738,49.231
	c-8.862,2.954-17.723,6.892-26.585,10.831l-46.277-22.646l-75.815,75.815l22.646,46.277c-4.923,7.877-7.877,16.738-10.831,26.585
	L0,202.831v106.338l49.231,16.738c2.954,8.862,6.892,17.723,10.831,26.585l-22.646,46.277l75.815,75.815l46.277-22.646
	c8.862,3.938,17.723,7.877,26.585,10.831L202.831,512h106.338l16.738-49.231c8.862-2.954,17.723-6.892,26.585-10.831l46.277,22.646
	l75.815-75.815l-22.646-46.277c3.938-8.862,7.877-17.723,10.831-26.585L512,309.169z M256,401.723
	c-80.738,0-145.723-64.985-145.723-145.723S175.262,110.277,256,110.277S401.723,175.262,401.723,256S336.738,401.723,256,401.723z"
	/>
<circle style="fill:#FF7058;" cx="256" cy="234.338" r="66.954"/>
<path style="fill:#FFD05C;" d="M310.154,300.308c-31.508,25.6-76.8,26.585-109.292,0c-22.646,11.815-41.354,30.523-53.169,53.169
	c26.585,29.538,64.985,47.262,107.323,47.262s80.738-18.708,107.323-47.262C351.508,330.831,332.8,312.123,310.154,300.308z"/>
<g>
</g>
<g>
</g>
<g>
</g>
<g>
</g>
<g>
</g>
<g>
</g>
<g>
</g>
<g>
</g>
<g>
</g>
<g>
</g>
<g>
</g>
<g>
</g>
<g>
</g>
<g>
</g>
<g>
</g>
</svg>
