<?xml version="1.0" encoding="iso-8859-1"?>
<!-- Generator: Adobe Illustrator 19.0.0, SVG Export Plug-In . SVG Version: 6.00 Build 0)  -->
<svg version="1.1" id="Capa_1" xmlns="http://www.w3.org/2000/svg" xmlns:xlink="http://www.w3.org/1999/xlink" x="0px" y="0px"
	 viewBox="0 0 512 512" style="enable-background:new 0 0 512 512;" xml:space="preserve">
<path style="fill:#68BBF1;" d="M338.708,149.662l-23.631-5.908c-34.462,43.323-83.692,43.323-118.154,0l-24.615,6.892
	c-20.677,5.908-34.462,24.615-34.462,45.292V281.6h236.308v-85.662C374.154,174.277,359.385,155.569,338.708,149.662z"/>
<path style="fill:#FFD05C;" d="M322.954,66.954c0,36.431-29.538,88.615-66.954,88.615c-37.415,0-66.954-52.185-66.954-88.615
	S219.569,0,256,0S322.954,29.538,322.954,66.954z"/>
<rect x="47.262" y="291.446" style="fill:#C7C7C7;" width="417.477" height="192.985"/>
<g>
	<rect x="102.4" y="484.431" style="fill:#B0AFB0;" width="19.692" height="27.569"/>
	<rect x="388.923" y="484.431" style="fill:#B0AFB0;" width="19.692" height="27.569"/>
</g>
<path style="fill:#314A5E;" d="M421.415,285.538h19.692v-66.954c0-5.908-4.923-9.846-9.846-9.846H275.692v-10.831
	c0-5.908-4.923-9.846-9.846-9.846c-5.908,0-9.846,4.923-9.846,9.846v20.677c0,5.908,4.923,9.846,9.846,9.846h155.569V285.538z"/>
<path style="fill:#9A9A9A;" d="M480.492,291.446H31.508c-5.908,0-9.846-4.923-9.846-9.846c0-4.923,4.923-9.846,9.846-9.846h448.985
	c5.908,0,9.846,4.923,9.846,9.846C490.338,286.523,486.4,291.446,480.492,291.446z"/>
<g>
</g>
<g>
</g>
<g>
</g>
<g>
</g>
<g>
</g>
<g>
</g>
<g>
</g>
<g>
</g>
<g>
</g>
<g>
</g>
<g>
</g>
<g>
</g>
<g>
</g>
<g>
</g>
<g>
</g>
</svg>
