<?xml version="1.0" encoding="iso-8859-1"?>
<!-- Generator: Adobe Illustrator 19.0.0, SVG Export Plug-In . SVG Version: 6.00 Build 0)  -->
<svg version="1.1" id="Capa_1" xmlns="http://www.w3.org/2000/svg" xmlns:xlink="http://www.w3.org/1999/xlink" x="0px" y="0px"
	 viewBox="0 0 512 512" style="enable-background:new 0 0 512 512;" xml:space="preserve">
<path style="fill:#FFD05C;" d="M187.077,249.6c0,37.415-30.523,90.585-67.938,90.585S51.2,287.015,51.2,249.6
	s30.523-67.938,67.938-67.938S187.077,213.169,187.077,249.6z"/>
<path style="fill:#F2F2F2;" d="M119.138,109.785v72.862c37.415,0,67.938,30.523,67.938,67.938c0,23.631-11.815,53.169-29.538,71.877
	l46.277,12.8c20.677,5.908,35.446,24.615,35.446,46.277v29.538H460.8c5.908,0,11.815-4.923,11.815-11.815V109.785H119.138z"/>
<rect x="78.769" y="45.785" style="fill:#C7C7C7;" width="433.231" height="64"/>
<rect x="238.277" y="224.985" style="fill:#68BBF1;" width="35.446" height="93.538"/>
<rect x="317.046" y="195.446" style="fill:#4EA2DC;" width="35.446" height="122.092"/>
<rect x="394.831" y="166.892" style="fill:#3095CE;" width="35.446" height="151.631"/>
<path style="fill:#FF7058;" d="M202.831,334.277l-21.662-5.908c-36.431,46.277-88.615,47.262-124.062,0l-21.662,5.908
	C14.769,339.2,0,358.892,0,379.569v86.646h238.277v-86.646C238.277,358.892,224.492,339.2,202.831,334.277z"/>
<g>
</g>
<g>
</g>
<g>
</g>
<g>
</g>
<g>
</g>
<g>
</g>
<g>
</g>
<g>
</g>
<g>
</g>
<g>
</g>
<g>
</g>
<g>
</g>
<g>
</g>
<g>
</g>
<g>
</g>
</svg>
